<svg width="13" height="16" viewBox="0 0 13 16" fill="none" xmlns="http://www.w3.org/2000/svg">
<path d="M9 0.5H8.91875C8.63904 0.502657 8.36813 0.598133 8.14856 0.771437C7.92899 0.944741 7.77319 1.18606 7.70563 1.4575C7.63327 1.72177 7.47608 1.95495 7.25824 2.12116C7.04041 2.28737 6.774 2.3774 6.5 2.3774C6.226 2.3774 5.95959 2.28737 5.74176 2.12116C5.52392 1.95495 5.36673 1.72177 5.29437 1.4575C5.22681 1.18606 5.07101 0.944741 4.85144 0.771437C4.63187 0.598133 4.36096 0.502657 4.08125 0.5L4 0.5C3.1715 0.500992 2.37722 0.830551 1.79139 1.41639C1.20555 2.00222 0.875992 2.7965 0.875 3.625V13.625C0.875 14.1223 1.07254 14.5992 1.42417 14.9508C1.77581 15.3025 2.25272 15.5 2.75 15.5H4.08125C4.36096 15.4973 4.63187 15.4019 4.85144 15.2286C5.07101 15.0553 5.22681 14.8139 5.29437 14.5425C5.36673 14.2782 5.52392 14.045 5.74176 13.8788C5.95959 13.7126 6.226 13.6226 6.5 13.6226C6.774 13.6226 7.04041 13.7126 7.25824 13.8788C7.47608 14.045 7.63327 14.2782 7.70563 14.5425C7.77319 14.8139 7.92899 15.0553 8.14856 15.2286C8.36813 15.4019 8.63904 15.4973 8.91875 15.5H10.25C10.7473 15.5 11.2242 15.3025 11.5758 14.9508C11.9275 14.5992 12.125 14.1223 12.125 13.625V3.625C12.124 2.7965 11.7944 2.00222 11.2086 1.41639C10.6228 0.830551 9.8285 0.500992 9 0.5V0.5ZM10.25 14.25L8.91063 14.2106C8.76383 13.6803 8.44614 13.2132 8.00682 12.8817C7.56751 12.5503 7.03112 12.3731 6.48083 12.3776C5.93055 12.3821 5.39711 12.568 4.96326 12.9065C4.52941 13.2451 4.21938 13.7173 4.08125 14.25H2.75C2.58424 14.25 2.42527 14.1842 2.30806 14.0669C2.19085 13.9497 2.125 13.7908 2.125 13.625V11.125H3.375C3.54076 11.125 3.69973 11.0592 3.81694 10.9419C3.93415 10.8247 4 10.6658 4 10.5C4 10.3342 3.93415 10.1753 3.81694 10.0581C3.69973 9.94085 3.54076 9.875 3.375 9.875H2.125V3.625C2.125 3.12772 2.32254 2.65081 2.67417 2.29917C3.02581 1.94754 3.50272 1.75 4 1.75L4.08937 1.78937C4.23576 2.31652 4.55062 2.78128 4.98589 3.11272C5.42115 3.44416 5.95291 3.62408 6.5 3.625C7.05447 3.62028 7.59223 3.43456 8.03144 3.0961C8.47065 2.75764 8.78727 2.28497 8.93312 1.75H9C9.49728 1.75 9.97419 1.94754 10.3258 2.29917C10.6775 2.65081 10.875 3.12772 10.875 3.625V9.875H9.625C9.45924 9.875 9.30027 9.94085 9.18306 10.0581C9.06585 10.1753 9 10.3342 9 10.5C9 10.6658 9.06585 10.8247 9.18306 10.9419C9.30027 11.0592 9.45924 11.125 9.625 11.125H10.875V13.625C10.875 13.7908 10.8092 13.9497 10.6919 14.0669C10.5747 14.1842 10.4158 14.25 10.25 14.25Z" fill="white"/>
</svg>
