<svg width="14" height="15" viewBox="0 0 14 15" fill="none" xmlns="http://www.w3.org/2000/svg">
<path d="M11.8088 4.98001L5.84625 0.605007C5.38056 0.263998 4.82951 0.0586288 4.25423 0.0116719C3.67894 -0.035285 3.10189 0.0780053 2.58706 0.338981C2.07223 0.599956 1.63974 0.998419 1.33754 1.49019C1.03534 1.98195 0.875241 2.54781 0.875 3.12501V11.875C0.875103 12.4525 1.03521 13.0186 1.33755 13.5106C1.63989 14.0026 2.07263 14.4012 2.58776 14.6621C3.10289 14.9231 3.68026 15.0362 4.25578 14.989C4.8313 14.9417 5.38247 14.7359 5.84812 14.3944L11.8106 10.0194C12.2064 9.72913 12.5283 9.34973 12.7501 8.91192C12.972 8.47411 13.0876 7.99019 13.0876 7.49938C13.0876 7.00857 12.972 6.52466 12.7501 6.08684C12.5283 5.64903 12.2064 5.26963 11.8106 4.97938L11.8088 4.98001ZM11.0687 9.01126L5.10625 13.3863C4.82688 13.5904 4.49648 13.7133 4.15161 13.7412C3.80674 13.7692 3.46085 13.7012 3.15223 13.5448C2.84361 13.3883 2.5843 13.1495 2.403 12.8548C2.2217 12.5601 2.12549 12.221 2.125 11.875V3.12501C2.12153 2.77835 2.21593 2.43775 2.39736 2.14233C2.57879 1.84692 2.83987 1.60869 3.15062 1.45501C3.41493 1.32056 3.70721 1.25033 4.00375 1.25001C4.40118 1.25153 4.78764 1.38056 5.10625 1.61813L11.0687 5.99313C11.3059 6.16732 11.4988 6.39488 11.6317 6.65742C11.7646 6.91997 11.8339 7.21011 11.8339 7.50438C11.8339 7.79866 11.7646 8.0888 11.6317 8.35134C11.4988 8.61388 11.3059 8.84145 11.0687 9.01563V9.01126Z" fill="#8D0019"/>
</svg>
